<svg class="svg-icon" style="width: 1em; height: 1em;vertical-align: middle;fill: currentColor;overflow: hidden;" viewBox="0 0 1024 1024" version="1.1" xmlns="http://www.w3.org/2000/svg"><path d="M512 870.4c-98.679467 0-183.995733-35.259733-253.559467-104.840533C190.071467 697.1904 154.794667 613.358933 153.6 516.471467v-48.605867l-56.200533 56.200533a17.0496 17.0496 0 1 1-24.132267-24.132266l85.333333-85.333334a17.066667 17.066667 0 0 1 10.922667-4.9664h0.017067a14.8992 14.8992 0 0 1 3.259733 0.1024h0.017067a16.9984 16.9984 0 0 1 9.984 4.949334l85.248 85.248a17.0496 17.0496 0 1 1-24.132267 24.132266L187.733333 467.8656v48.401067c1.0752 87.466667 32.989867 163.293867 94.839467 225.160533C345.514667 804.369067 422.7072 836.266667 512 836.266667s166.485333-31.8976 229.4272-94.839467a347.818667 347.818667 0 0 0 52.053333-65.877333 17.066667 17.066667 0 0 1 29.2352 17.629866 380.757333 380.757333 0 0 1-57.156266 72.379734C695.978667 835.140267 610.679467 870.4 512 870.4z m341.333333-256c-0.7168 0-1.4336-0.0512-2.1504-0.136533h-0.034133a16.9472 16.9472 0 0 1-9.966933-4.949334l-85.248-85.248a17.0496 17.0496 0 1 1 24.132266-24.132266L836.266667 556.1344V512c0-89.2928-31.8976-166.485333-94.839467-229.4272C678.485333 219.648 601.2928 187.733333 512 187.733333s-166.485333 31.914667-229.4272 94.839467a330.222933 330.222933 0 0 0-52.753067 68.1472 17.066667 17.066667 0 1 1-29.5424-17.083733 364.834133 364.834133 0 0 1 58.180267-75.195734C328.004267 188.8768 413.320533 153.6 512 153.6s183.995733 35.2768 253.559467 104.840533S870.4 413.320533 870.4 512v44.1344l56.200533-56.200533a17.0496 17.0496 0 1 1 24.132267 24.132266l-85.333333 85.333334a16.964267 16.964267 0 0 1-10.922667 4.9664h-0.034133A24.064 24.064 0 0 1 853.333333 614.4z"  /><path d="M512 760.32a34.133333 34.133333 0 0 1-34.133333-34.133333v-14.1824c-18.688-5.5296-35.618133-15.837867-50.5856-30.805334C404.224 658.158933 392.533333 630.237867 392.533333 598.186667a34.133333 34.133333 0 0 1 68.266667 0c0 13.653333 4.676267 24.6784 14.7456 34.730666 10.6496 10.666667 22.237867 15.616 36.4544 15.616 13.9776 0 25.173333-4.829867 35.191467-15.2064 11.178667-10.820267 16.008533-22.016 16.008533-35.9936 0-14.216533-4.949333-25.8048-15.598933-36.4544-10.069333-10.069333-20.8384-14.7456-33.8944-14.7456h-2.56c-32.034133 0-60.245333-11.9808-83.8656-35.601066C404.224 487.492267 392.533333 459.281067 392.533333 426.666667c0-32.375467 11.554133-60.757333 34.3552-84.309334 15.394133-14.916267 32.392533-25.002667 50.978134-30.429866v-14.114134a34.133333 34.133333 0 0 1 68.266666 0v14.114134c18.517333 5.410133 35.1744 15.445333 49.749334 30.020266C619.485867 365.568 631.466667 394.069333 631.466667 426.666667a34.133333 34.133333 0 0 1-68.266667 0c0-14.216533-4.949333-25.8048-15.598933-36.4544-10.069333-10.069333-21.367467-14.7456-35.601067-14.7456-14.455467 0-26.1632 4.8128-36.846933 15.1552C465.6128 400.503467 460.8 412.2112 460.8 426.666667c0 14.216533 4.676267 25.531733 14.7456 35.584 10.6496 10.6496 21.9648 15.616 35.601067 15.616h2.56c31.470933 0 59.118933 11.690667 82.176 34.747733C619.485867 536.234667 631.466667 564.736 631.466667 597.333333c0 32.3584-12.4416 61.508267-35.9936 84.2752A113.578667 113.578667 0 0 1 546.133333 711.867733v14.318934a34.133333 34.133333 0 0 1-34.133333 34.133333z"  /></svg>